<?xml version="1.0" encoding="UTF-8" standalone="no"?>
<svg
   width="1000"
   height="1000"
   version="1.1"
   id="svg71"
   xmlns="http://www.w3.org/2000/svg"
   xmlns:svg="http://www.w3.org/2000/svg">
  <defs
     id="defs75">
    <rect
       x="49.712007"
       y="395.25131"
       width="854.64396"
       height="367.41687"
       id="rect1192" />
    <rect
       x="49.712006"
       y="395.25131"
       width="439.33121"
       height="353.80462"
       id="rect1192-1" />
  </defs>
  <!-- Created with SVG-edit - https://github.com/SVG-Edit/svgedit-->
  <g
     id="layer1"
     style="display:inline">
    <circle
       style="display:inline;fill:#000000;fill-opacity:1;stroke:#000000;stroke-width:16.0655;stroke-dasharray:none"
       id="path2141"
       cx="500"
       cy="500"
       r="481.96722" />
  </g>
  <g
     id="layer2"
     style="fill:none;fill-opacity:1;stroke:#ffffff;stroke-opacity:1">
    <g
       id="g2642"
       style="stroke:#ffffff;fill:#ffffff;fill-opacity:1;stroke-opacity:1">
      <g
         aria-label="ZL  CLV"
         transform="matrix(1.1202386,0,0,1.3661202,-12.859826,-221.45171)"
         id="text1190"
         style="font-size:200px;white-space:pre;fill:#ffffff;fill-opacity:1;stroke:#ffffff;stroke-opacity:1">
        <g
           id="path3124"
           style="fill:#ffffff;fill-opacity:1;stroke:#ffffff;stroke-opacity:1">
          <path
             style="color:#000000;-inkscape-font-specification:'Montserrat Heavy';fill:#ffffff;stroke:#ffffff;-inkscape-stroke:none;fill-opacity:1;stroke-opacity:1"
             d="m 181.51289,468.07066 v -29 H 58.112891 v 36.6 h 61.999999 l -63.999999,74.4 v 29 H 184.71289 v -36.6 h -67.2 z"
             id="path3137" />
          <path
             style="color:#000000;-inkscape-font-specification:'Montserrat Heavy';fill:#ffffff;stroke:#ffffff;-inkscape-stroke:none;fill-opacity:1;stroke-opacity:1"
             d="m 57.613281,438.57031 v 37.59961 h 61.410159 l -63.410159,73.71485 v 29.68554 H 185.21289 V 541.9707 h -66.60937 l 63.41015,-73.71484 v -0.18555 -29.5 z m 1,1 H 181.01367 v 28.31446 l -64.58984,75.08593 h 67.78906 v 35.59961 H 56.613281 V 550.25586 L 121.20313,475.16992 H 58.613281 Z"
             id="path3139" />
        </g>
        <g
           id="path3126"
           style="fill:#ffffff;fill-opacity:1;stroke:#ffffff;stroke-opacity:1">
          <path
             style="color:#000000;-inkscape-font-specification:'Montserrat Heavy';fill:#ffffff;stroke:#ffffff;-inkscape-stroke:none;fill-opacity:1;stroke-opacity:1"
             d="m 308.91295,579.07066 v -36.6 h -63.2 v -103.4 h -47.2 v 140 z"
             id="path3143" />
          <path
             style="color:#000000;-inkscape-font-specification:'Montserrat Heavy';fill:#ffffff;stroke:#ffffff;-inkscape-stroke:none;fill-opacity:1;stroke-opacity:1"
             d="m 198.01367,438.57031 v 141 h 111.39844 v -0.5 -37.09961 H 246.21289 V 438.57031 Z m 1,1 h 46.19922 V 542.9707 h 63.19922 v 35.59961 H 199.01367 Z"
             id="path3145" />
        </g>
        <g
           id="path3128"
           style="fill:#ffffff;fill-opacity:1;stroke:#ffffff;stroke-opacity:1">
          <path
             style="color:#000000;-inkscape-font-specification:'Montserrat Heavy';fill:#ffffff;stroke:#ffffff;-inkscape-stroke:none;fill-opacity:1;stroke-opacity:1"
             d="m 514.31276,582.27066 c 27.4,0 49,-10 62.8,-28 l -29.8,-26.6 c -8.2,10.4 -18,16.4 -30.6,16.4 -19.6,0 -32.8,-13.6 -32.8,-35 0,-21.4 13.2,-35 32.8,-35 12.6,0 22.4,6 30.6,16.4 l 29.8,-26.6 c -13.8,-18 -35.4,-28 -62.8,-28 -45,0 -78,30.2 -78,73.2 0,43 33,73.2 78,73.2 z"
             id="path3149" />
          <path
             style="color:#000000;-inkscape-font-specification:'Montserrat Heavy';fill:#ffffff;stroke:#ffffff;-inkscape-stroke:none;fill-opacity:1;stroke-opacity:1"
             d="m 514.3125,435.37109 c -45.22366,0 -78.5,30.44345 -78.5,73.69922 0,43.25577 33.27634,73.70117 78.5,73.70117 27.52163,0 49.29841,-10.06831 63.19727,-28.19726 l 0.28125,-0.36719 -30.54102,-27.26367 -0.33008,0.41797 c -8.13796,10.32131 -17.76577,16.20898 -30.20703,16.20898 -9.68434,0 -17.73584,-3.34808 -23.38672,-9.31836 -5.65088,-5.97027 -8.91406,-14.58445 -8.91406,-25.18164 0,-10.59718 3.26318,-19.21136 8.91406,-25.18164 5.65088,-5.97028 13.70238,-9.31836 23.38672,-9.31836 12.44126,0 22.06907,5.88767 30.20703,16.20899 l 0.33008,0.41797 30.54102,-27.26172 -0.28125,-0.36914 C 563.61091,445.43746 541.83413,435.37109 514.3125,435.37109 Z m 0,1 c 27.08965,0 48.38726,9.8168 62.09961,27.45508 l -29.06836,25.94727 c -8.19472,-10.21475 -18.04829,-16.20313 -30.63086,-16.20313 -9.91564,0 -18.26417,3.45115 -24.11328,9.63086 -5.84911,6.17971 -9.1875,15.06635 -9.1875,25.86914 0,10.8028 3.33839,19.68943 9.1875,25.86914 5.84911,6.17971 14.19764,9.63086 24.11328,9.63086 12.5826,0 22.43613,-5.98833 30.63086,-16.20312 l 29.06836,25.94922 c -13.71235,17.63828 -35.00996,27.45507 -62.09961,27.45507 -44.77625,0 -77.5,-29.95702 -77.5,-72.70117 0,-42.74414 32.72375,-72.69922 77.5,-72.69922 z"
             id="path3151" />
        </g>
        <g
           id="path3130"
           style="fill:#ffffff;fill-opacity:1;stroke:#ffffff;stroke-opacity:1">
          <path
             style="color:#000000;-inkscape-font-specification:'Montserrat Heavy';fill:#ffffff;stroke:#ffffff;-inkscape-stroke:none;fill-opacity:1;stroke-opacity:1"
             d="m 701.11262,579.07066 v -36.6 h -63.2 v -103.4 h -47.2 v 140 z"
             id="path3155" />
          <path
             style="color:#000000;-inkscape-font-specification:'Montserrat Heavy';fill:#ffffff;stroke:#ffffff;-inkscape-stroke:none;fill-opacity:1;stroke-opacity:1"
             d="m 590.21289,438.57031 v 141 h 111.40039 v -0.5 -37.09961 H 638.41211 V 438.57031 Z m 1,1 h 46.19922 V 542.9707 h 63.20117 v 35.59961 H 591.21289 Z"
             id="path3157" />
        </g>
        <g
           id="path3132"
           style="fill:#ffffff;fill-opacity:1;stroke:#ffffff;stroke-opacity:1">
          <path
             style="color:#000000;-inkscape-font-specification:'Montserrat Heavy';fill:#ffffff;stroke:#ffffff;-inkscape-stroke:none;fill-opacity:1;stroke-opacity:1"
             d="m 774.11277,520.87066 -33.4,-81.8 h -50.8 l 59.2,140 h 46.4 l 59.2,-140 h -46.4 z"
             id="path3161" />
          <path
             style="color:#000000;-inkscape-font-specification:'Montserrat Heavy';fill:#ffffff;stroke:#ffffff;-inkscape-stroke:none;fill-opacity:1;stroke-opacity:1"
             d="m 689.1582,438.57031 59.62305,141 h 47.0625 l 59.62305,-141 h -47.48633 l -33.86133,80.99219 -33.07031,-80.99219 z m 1.50977,1 h 49.70898 l 33.73047,82.60938 0.4668,-1.11524 34.07226,-81.49414 h 45.31055 l -58.77539,139 h -45.73828 z"
             id="path3163" />
        </g>
      </g>
      <g
         id="svg_1"
         style="fill:#ffffff;fill-opacity:1;stroke:#ffffff;stroke-opacity:1">
        <path
           style="color:#000000;display:inline;fill:#ffffff;fill-opacity:1;stroke:#ffffff;stroke-opacity:1;-inkscape-stroke:none"
           d="m 343.85937,274.48828 v 130.3418 l 11.15625,-6.23047 c 0,0 26.58821,-14.58938 51.98243,-18.18945 12.6971,-1.80004 24.50754,-0.72335 32.65429,4.7539 8.14675,5.47726 14.27132,15.60776 14.67383,36.68555 0.35162,18.41514 -5.12177,30.8527 -13.46289,39.82812 -10.20512,-6.91162 -21.95501,-11.34169 -33.6543,-13.69726 -14.82445,-2.98481 -29.47561,-2.85944 -41.24609,0.0371 -5.88524,1.44827 -11.10225,3.55564 -15.35156,6.89062 -4.24932,3.33498 -7.61524,8.54174 -7.61524,14.45899 0,5.97531 3.29824,11.12307 7.48243,14.6914 4.18418,3.56834 9.42481,6.08342 15.39453,7.95313 11.93944,3.73942 26.94943,4.80186 42.14453,2.2168 11.40239,-1.93984 22.95636,-5.99407 32.98047,-12.90821 7.58863,7.82998 12.46289,17.71174 12.46289,31.47071 0,16.24717 -3.15398,27.74465 -8.03125,35.47851 -4.87728,7.73387 -11.38008,12.11366 -20.04688,14.34375 -17.33358,4.46019 -43.71678,-1.50419 -71.56836,-15.24219 l -10.78125,-5.3164 -0.0371,12.01953 c 0,0 -0.18057,56.77141 0.71289,196.30078 l 15,-0.0977 c -0.77869,-121.6062 -0.7293,-171.37751 -0.70703,-184.41992 25.71268,11.23702 50.45598,16.60014 71.11914,11.2832 11.77505,-3.02989 22.12929,-9.98244 28.9961,-20.87109 6.86681,-10.88865 10.34375,-25.30417 10.34375,-43.47851 0,-17.144 -6.42682,-31.16983 -16.10352,-41.50391 10.61664,-11.78189 17.37353,-28.4231 16.9668,-49.72461 -0.46052,-24.11581 -8.57533,-40.28876 -21.30274,-48.8457 -12.72741,-8.55695 -28.42531,-9.2427 -43.1289,-7.15821 -18.39458,2.60776 -35.31184,9.49741 -46.03321,14.48633 V 274.48828 Z m 41.59571,186.35547 c 5.95829,-0.0212 12.39695,0.554 18.79297,1.8418 8.37718,1.68669 16.56824,4.69804 23.83203,8.7832 -6.92497,3.90059 -14.62611,6.61787 -22.57813,7.9707 -12.83679,2.18386 -25.96022,1.13433 -35.14453,-1.74218 -4.59215,-1.43826 -8.16126,-3.35776 -10.14648,-5.05079 -1.98523,-1.69302 -2.21485,-2.63508 -2.21485,-3.27929 0,-0.70227 0.0852,-1.25391 1.87696,-2.66016 1.79179,-1.40625 5.20483,-3.02281 9.67578,-4.12305 4.47094,-1.10023 9.94795,-1.71905 15.90625,-1.74023 z"
           id="path3169" />
        <path
           style="stroke:#ffffff;color:#000000;fill:#ffffff;-inkscape-stroke:none;fill-opacity:1;stroke-opacity:1"
           d="m 74.416016,12.443359 63.140624,111.652341 63.14063,111.65235 11.14257,-18.90625 53.98047,-91.60157 65.125,-110.507808 -128.26367,-1.144531 z m 43.664064,25.730469 84.375,0.753906 84.37304,0.753907 -42.83789,72.693359 -42.83984,72.69336 -41.53516,-73.44727 z"
           id="path1132"
           transform="matrix(0.60096238,0,0,0.55476373,230.25224,163.11337)" />
        <path
           style="stroke:#ffffff;color:#000000;fill:#ffffff;-inkscape-stroke:none;fill-opacity:1;stroke-opacity:1"
           d="m 343.85937,600 -98.86523,99.40039 10.64063,10.58203 98.86328,-99.40039 z"
           id="path2050" />
        <path
           style="stroke:#ffffff;color:#000000;fill:#ffffff;-inkscape-stroke:none;fill-opacity:1;stroke-opacity:1"
           d="m 357.94141,600 -10.60157,10.61133 99.14063,99.04492 10.60156,-10.61328 z"
           id="path2050-3" />
      </g>
    </g>
  </g>
</svg>
