<?xml version="1.0" standalone="no"?>
<!DOCTYPE svg PUBLIC "-//W3C//DTD SVG 20010904//EN"
 "http://www.w3.org/TR/2001/REC-SVG-20010904/DTD/svg10.dtd">
<svg version="1.0" xmlns="http://www.w3.org/2000/svg"
 width="400.000000pt" height="400.000000pt" viewBox="0 0 400.000000 400.000000"
 preserveAspectRatio="xMidYMid meet">
<metadata>
Created by potrace 1.14, written by Peter Selinger 2001-2017
</metadata>
<g transform="translate(0.000000,400.000000) scale(0.100000,-0.100000)"
fill="#000000" stroke="none">
<path d="M1570 3997 c0 -2 57 -39 128 -82 70 -43 150 -93 177 -110 28 -18 65
-40 83 -49 17 -9 32 -20 32 -24 -1 -4 -19 -27 -41 -51 l-40 -44 -29 21 c-38
29 -48 11 -13 -22 21 -20 24 -26 11 -26 -11 0 -15 -7 -14 -23 2 -16 -3 -23
-16 -24 -15 -2 -18 6 -19 40 -1 23 0 47 1 52 2 6 2 21 2 35 -2 20 0 22 8 10
14 -21 12 -3 -2 23 -6 12 -10 37 -10 56 l2 34 -33 -31 c-18 -18 -40 -32 -49
-32 -9 0 -20 -5 -23 -10 -4 -6 -10 -8 -15 -5 -16 10 -140 -106 -140 -132 0 -4
-13 -27 -30 -51 -16 -24 -31 -48 -34 -55 -5 -9 -7 -9 -12 1 -10 21 -22 13 -26
-15 -3 -30 -9 -32 -133 -37 -129 -7 -124 -5 -87 -21 17 -8 32 -19 32 -24 0 -6
7 -8 15 -5 21 8 41 -6 24 -17 -11 -7 -10 -9 4 -9 10 0 16 -3 14 -7 -3 -5 15
-9 39 -10 78 -3 79 -4 51 -41 -7 -9 -13 -9 -23 -1 -18 15 -44 4 -44 -17 0 -12
-5 -15 -22 -9 -13 4 -35 7 -50 7 -15 -1 -30 3 -33 8 -8 13 -66 1 -87 -18 -10
-8 -18 -27 -18 -42 0 -28 -25 -49 -33 -27 -7 20 -18 1 -24 -43 -5 -33 -8 -39
-15 -26 -5 9 -9 27 -8 39 3 37 1 47 -13 41 -21 -8 -12 -111 15 -174 21 -48 22
-59 12 -90 -9 -26 -18 -35 -33 -34 -20 1 -20 -1 -5 -17 9 -10 20 -16 24 -14
16 10 17 -35 2 -47 -13 -11 -15 -10 -10 10 5 18 2 22 -16 22 -12 0 -32 -7 -44
-16 -18 -12 -20 -19 -12 -29 7 -8 9 -19 5 -25 -3 -5 0 -10 8 -10 27 0 37 -24
19 -47 -20 -25 -108 -37 -116 -16 -3 7 -12 10 -19 7 -10 -4 -16 5 -21 29 -8
41 -35 58 -43 27 -9 -33 -35 -25 -31 9 2 19 -5 38 -18 53 -11 13 -23 31 -27
40 -6 16 -34 18 -67 5 -28 -12 -115 -14 -128 -4 -9 7 -22 2 -45 -21 -18 -18
-37 -32 -42 -32 -9 0 -11 -10 -18 -85 -4 -60 -17 -68 -93 -62 -38 3 -79 8 -91
12 -18 6 -23 3 -23 -9 0 -9 -7 -16 -16 -16 -11 0 -15 6 -11 20 6 22 -29 43
-93 55 -19 4 -43 14 -52 22 -10 9 -28 17 -41 18 -21 3 -24 -1 -25 -35 -2 -43
2 -46 78 -56 27 -4 50 -11 50 -17 0 -9 -50 -5 -107 10 -21 5 -23 1 -23 -31 0
-36 12 -47 26 -24 14 23 23 -43 29 -211 3 -91 8 -208 10 -259 3 -88 -7 -152
-25 -152 -9 0 -20 49 -21 94 0 17 -4 40 -9 51 -5 11 -9 -456 -9 -1077 l-1
-1098 681 0 682 0 -8 33 c-3 17 -9 120 -12 227 -7 278 -8 292 -27 420 -13 82
-17 149 -14 232 4 92 2 118 -8 122 -8 3 -14 16 -14 30 0 14 -4 28 -10 31 -22
14 -70 141 -85 225 -17 99 -20 129 -31 307 -6 107 -5 123 9 129 13 4 10 11
-14 32 -31 27 -60 114 -58 172 1 14 6 -2 13 -35 21 -103 64 -159 80 -102 3 12
9 59 12 104 l7 83 31 -6 c17 -4 37 -7 44 -7 6 0 12 -4 12 -8 0 -5 13 -6 30 -3
47 10 120 -4 120 -23 0 -13 9 -15 56 -9 31 3 73 15 93 24 l38 19 -5 -24 c-2
-13 -8 -23 -13 -23 -5 0 -9 -7 -9 -15 0 -8 4 -15 9 -15 10 0 -10 -74 -33 -117
-27 -54 -59 -66 -180 -71 -80 -3 -107 -2 -102 7 9 13 -3 14 -23 2 -12 -8 -10
-11 10 -15 40 -10 251 -26 261 -20 17 11 78 115 78 135 0 11 4 18 9 15 11 -7
41 37 41 59 0 23 45 104 66 119 43 32 79 -18 75 -102 -2 -29 2 -59 8 -66 9
-10 8 -15 -4 -20 -24 -9 -8 -26 24 -26 16 0 39 -9 52 -19 l24 -19 -28 -11
c-16 -6 -33 -11 -38 -11 -5 0 -9 -7 -9 -15 0 -8 -4 -15 -9 -15 -5 0 -4 -11 2
-25 7 -14 18 -23 25 -20 7 3 10 0 7 -5 -3 -6 -14 -10 -24 -10 -10 0 -32 -7
-47 -15 -16 -8 -36 -15 -45 -15 -9 0 -22 -6 -28 -14 -18 -21 -57 -25 -121 -12
-46 10 -62 10 -76 -1 -23 -17 -7 -54 35 -79 17 -10 31 -21 31 -24 0 -3 -17
-16 -36 -30 -20 -14 -46 -34 -58 -45 -11 -11 -24 -21 -28 -21 -5 -1 -11 -3
-15 -4 -5 -1 -15 -2 -24 -1 -9 1 -22 -5 -29 -14 -7 -8 -21 -15 -31 -15 -10 0
-21 -10 -25 -22 -10 -29 -5 -171 7 -178 16 -10 18 -142 3 -165 -15 -23 -12
-134 6 -195 14 -48 13 -90 -2 -90 -7 0 -2 -6 12 -13 16 -9 24 -21 23 -34 -1
-12 11 -34 27 -52 17 -17 30 -40 30 -51 0 -12 4 -18 10 -15 5 3 16 -10 24 -30
8 -19 20 -35 25 -35 6 0 11 -7 11 -16 0 -11 6 -13 19 -9 19 6 36 -9 36 -30 0
-5 5 -10 10 -10 19 0 36 -17 31 -31 -9 -24 11 -24 29 -1 14 19 49 28 63 17 1
-2 6 -3 10 -4 5 0 16 -9 26 -18 10 -10 27 -18 39 -18 12 0 30 -7 40 -15 11 -7
38 -17 60 -20 23 -4 47 -11 52 -15 6 -4 30 -10 55 -13 25 -3 36 -3 26 2 -15 6
-5 11 43 21 34 7 64 17 67 21 3 5 15 9 27 9 12 0 34 11 48 24 14 13 34 26 45
28 12 2 21 15 25 38 4 20 18 42 35 54 15 11 39 31 52 43 14 13 29 23 33 23 5
0 9 7 9 15 0 8 4 15 10 15 5 0 17 14 25 31 9 17 29 35 44 40 26 9 51 44 51 70
0 6 16 27 35 46 19 19 35 42 35 50 0 8 11 28 24 44 13 15 26 34 29 41 7 21 14
6 20 -47 4 -36 3 -43 -3 -25 -8 21 -9 18 -9 -20 1 -106 -1 -126 -12 -110 -8
12 -9 10 -5 -10 3 -14 6 -37 6 -52 0 -16 5 -28 11 -28 6 0 8 9 4 20 -10 30 12
24 29 -8 32 -62 31 -154 -4 -307 -32 -142 -43 -182 -54 -200 -7 -11 -16 -33
-20 -48 -4 -17 -11 -25 -18 -21 -8 5 -9 -2 -5 -24 4 -20 2 -32 -4 -32 -6 0 -7
-4 -4 -10 4 -7 252 -10 711 -10 l704 0 0 450 0 450 -30 0 c-16 0 -30 5 -30 11
0 7 11 8 30 4 l30 -7 0 50 0 50 -72 6 c-40 3 -176 13 -303 21 -328 22 -476 34
-486 41 -5 3 -9 14 -9 26 0 18 -2 19 -16 7 -10 -8 -42 -13 -81 -14 -72 0 -68
-5 -48 78 6 23 3 27 -32 36 -21 6 -48 11 -60 11 -13 0 -24 6 -24 13 -1 6 -5
-6 -8 -28 -4 -25 -12 -41 -22 -43 -13 -2 -15 3 -12 22 4 21 0 26 -22 32 -23 6
-26 10 -20 33 3 14 13 39 21 55 8 16 14 36 14 45 0 9 4 22 9 30 7 11 13 10 35
-4 17 -11 35 -15 52 -11 37 10 86 60 78 81 -6 14 -9 14 -23 2 -9 -8 -22 -12
-30 -9 -8 2 -11 0 -7 -6 3 -6 -8 -10 -29 -10 -29 0 -36 4 -41 25 -8 30 8 137
40 268 l14 60 1 -61 c1 -39 -4 -67 -14 -80 -8 -10 -14 -28 -14 -39 0 -18 2
-17 22 7 16 20 28 26 45 22 12 -4 29 -1 37 6 20 16 20 100 0 126 -8 10 -15 26
-15 35 0 9 -7 20 -16 23 -12 5 -14 10 -5 20 6 7 8 16 5 19 -8 7 15 31 38 40
18 6 21 1 31 -66 2 -15 1 -30 -3 -32 -4 -3 -4 -24 1 -47 15 -78 11 -105 -21
-140 -34 -37 -34 -54 1 -50 l24 3 -22 -18 c-16 -13 -20 -22 -13 -33 15 -25 42
11 42 55 0 26 3 34 9 24 6 -10 9 -5 9 18 0 17 4 43 10 57 7 20 6 24 -5 19 -18
-6 -18 -5 -1 72 8 33 15 51 15 40 1 -12 8 -3 18 25 10 27 17 77 17 126 1 61 4
80 14 77 16 -7 15 8 -4 57 -9 23 -13 47 -9 57 7 17 24 148 27 204 l1 27 23
-25 c21 -23 24 -24 30 -8 7 17 8 17 22 -1 13 -17 14 -13 9 36 -3 30 -12 82
-19 115 -19 89 -9 322 15 339 17 14 24 32 8 21 -17 -10 -22 13 -6 28 9 9 16
36 16 64 l2 48 6 -40 c10 -58 20 -71 36 -48 7 11 16 36 20 56 7 34 9 36 20 20
7 -10 11 -22 8 -27 -11 -16 -11 -66 -1 -66 13 0 38 26 38 39 0 6 7 8 15 5 12
-5 15 -31 17 -138 1 -72 3 -108 5 -81 9 158 16 214 24 209 5 -3 9 5 9 17 0 18
2 19 15 9 8 -7 15 -19 15 -26 0 -21 17 -17 23 6 6 24 27 27 27 4 0 -14 1 -14
16 0 8 9 26 16 40 16 l24 0 2 -272 1 -273 7 208 c9 255 20 376 31 332 6 -26 7
-27 8 -6 1 21 4 23 34 17 17 -4 42 -7 55 -6 12 0 22 -6 22 -12 0 -7 7 -3 15 8
13 18 14 15 16 -31 2 -47 2 -48 8 -15 l7 35 7 -47 c5 -26 5 -63 2 -81 -4 -19
-3 -37 3 -41 5 -3 11 39 14 105 6 112 12 135 28 109 7 -10 10 -11 10 -2 0 6
11 12 25 12 14 0 25 -4 25 -10 0 -5 11 -10 25 -10 18 0 25 5 25 20 0 27 18 25
23 -2 2 -13 5 124 6 303 l1 327 -27 7 c-17 4 -23 9 -15 14 8 5 5 12 -9 25 -20
17 -22 17 -40 -1 -10 -10 -25 -24 -34 -31 -15 -13 -15 -16 1 -33 9 -10 27 -19
38 -19 25 -1 56 -22 56 -39 0 -6 -10 -11 -22 -10 -13 0 -17 3 -10 6 6 2 12 9
12 14 0 14 -119 6 -125 -8 -5 -16 -32 -17 -37 -2 -2 6 -14 8 -32 3 -26 -6 -28
-8 -12 -20 16 -12 16 -13 0 -22 -16 -9 -16 -11 -2 -26 9 -9 24 -16 33 -16 23
0 14 -22 -11 -27 -22 -5 -55 -11 -66 -12 -14 -2 4 -31 20 -31 13 0 13 -3 -2
-19 -10 -11 -15 -27 -12 -38 8 -25 4 -37 -14 -39 -14 -1 -134 -11 -435 -34
-71 -6 -177 -15 -235 -20 -177 -17 -224 -18 -244 -8 -13 7 -21 6 -28 -3 -7
-10 -8 -5 -3 15 l6 30 -20 -25 c-11 -13 -20 -19 -21 -13 0 18 43 52 95 73 43
18 45 20 15 15 -54 -9 -25 12 40 29 30 9 47 16 37 16 -11 1 -27 11 -36 23 -13
15 -23 19 -37 13 -10 -4 -50 -9 -89 -10 l-70 -2 50 12 c30 7 44 14 35 17 -10
4 -6 7 10 7 31 2 45 11 45 32 0 29 -31 47 -91 54 -32 3 -70 9 -84 12 -24 5
-24 6 10 18 32 12 33 14 10 15 -14 1 -42 1 -62 0 -23 -1 -38 3 -38 10 0 8 -28
11 -92 10 -115 -2 -114 -2 -101 11 13 13 356 59 888 119 94 11 204 24 245 29
41 6 134 17 205 26 72 9 169 21 218 27 l87 11 0 103 0 104 -1215 0 c-668 0
-1215 -2 -1215 -3z m465 -307 c-5 -8 -11 -8 -17 -2 -6 6 -7 16 -3 22 5 8 11 8
17 2 6 -6 7 -16 3 -22z m123 -62 c2 -5 11 -8 20 -8 23 0 -1 -23 -26 -25 -10 0
-33 -11 -51 -24 -18 -13 -35 -21 -38 -18 -3 4 -12 0 -20 -8 -22 -22 -35 -18
-27 8 11 35 42 93 59 111 15 14 19 14 48 -7 18 -12 34 -25 35 -29z m-134 -3
c-4 -8 -10 -15 -16 -15 -5 0 -7 -4 -4 -9 3 -4 -1 -17 -9 -27 -14 -18 -14 -18
-15 -1 0 19 30 66 42 67 4 0 5 -7 2 -15z m-254 -62 c-10 -16 -11 -15 -6 7 3
14 6 32 7 40 1 8 4 5 6 -7 2 -12 -1 -30 -7 -40z m500 13 c0 -11 -19 -15 -25
-6 -3 5 1 10 9 10 9 0 16 -2 16 -4z m-10 -31 c0 -2 -13 -10 -30 -19 -16 -8
-30 -10 -30 -5 0 6 -4 8 -9 5 -5 -3 -14 1 -21 9 -9 10 -9 15 -1 15 6 0 11 -4
11 -9 0 -6 12 -4 26 4 22 11 54 11 54 0z m-613 -17 c-3 -8 -6 -5 -6 6 -1 11 2
17 5 13 3 -3 4 -12 1 -19z m861 15 c-16 -2 -40 -2 -55 0 -16 2 -3 4 27 4 30 0
43 -2 28 -4z m-384 -17 c-3 -8 -17 -22 -31 -31 -24 -16 -24 -16 -12 7 18 34
55 55 43 24z m110 -31 c-4 -8 -13 -15 -21 -15 -13 0 -13 3 -3 15 7 8 16 15 21
15 5 0 6 -7 3 -15z m325 11 c-10 -10 -109 -43 -109 -37 0 7 30 25 60 34 19 7
55 8 49 3z m-922 -38 c-3 -7 -5 -2 -5 12 0 14 2 19 5 13 2 -7 2 -19 0 -25z
m-174 -35 c-7 -2 -21 -2 -30 0 -10 3 -4 5 12 5 17 0 24 -2 18 -5z m2327 -33
c0 -5 -2 -10 -4 -10 -3 0 -8 5 -11 10 -3 6 -1 10 4 10 6 0 11 -4 11 -10z
m-2565 -160 c0 -8 -8 -16 -17 -18 -13 -2 -18 3 -18 18 0 15 5 20 18 18 9 -2
17 -10 17 -18z m-58 -32 c-3 -7 -5 -2 -5 12 0 14 2 19 5 13 2 -7 2 -19 0 -25z
m-37 -53 c0 -8 -2 -15 -4 -15 -2 0 -6 7 -10 15 -3 8 -1 15 4 15 6 0 10 -7 10
-15z m2055 -226 c9 -28 3 -32 -30 -19 -23 9 -25 13 -15 25 18 21 38 19 45 -6z
m-1 -72 c-3 -9 -10 -17 -14 -17 -5 0 -15 -7 -24 -15 -19 -19 -52 -9 -35 11 6
8 17 14 25 14 7 0 18 9 25 21 13 24 33 12 23 -14z m-1437 -54 c45 -41 78 -56
105 -47 12 3 27 -1 38 -11 11 -10 41 -19 71 -21 29 -3 58 -9 65 -15 9 -7 19
-7 32 0 15 8 24 5 41 -13 12 -13 36 -27 53 -30 16 -3 51 -24 78 -46 60 -50
142 -84 110 -45 -8 9 -9 15 -2 15 6 0 14 -4 17 -10 3 -5 16 -10 28 -11 22 0
22 0 -1 -10 -28 -11 -20 -29 14 -29 19 0 24 -5 24 -24 0 -17 5 -23 18 -22 12
2 16 11 14 27 l-2 24 13 -23 c7 -12 17 -19 22 -15 4 4 5 0 2 -10 -6 -15 -4
-16 14 -6 12 6 19 7 16 2 -4 -6 7 -23 23 -38 17 -16 30 -37 30 -47 0 -10 7
-18 15 -18 8 0 15 -4 15 -10 0 -5 8 -19 18 -29 90 -98 155 -178 164 -203 9
-22 15 -22 -127 8 -38 9 -80 17 -92 20 -12 2 -33 15 -47 29 -26 26 -116 49
-102 27 5 -8 -3 -12 -24 -12 -18 0 -29 4 -25 10 3 6 0 10 -9 10 -8 0 -17 6
-19 13 -4 9 -7 9 -14 0 -8 -12 -146 -15 -138 -4 1 3 -34 5 -78 3 -109 -4 -117
-5 -117 -14 0 -4 -9 -8 -20 -8 -11 0 -20 6 -20 13 0 9 -3 8 -9 -2 -7 -11 -9
-11 -14 0 -4 11 -7 11 -14 2 -5 -7 -23 -13 -41 -15 -34 -2 -38 -8 -21 -25 6
-6 8 -20 5 -31 -5 -15 -19 -21 -66 -26 -66 -8 -80 -4 -80 23 0 12 -16 26 -47
41 -41 19 -47 20 -55 6 -7 -13 -12 -13 -41 4 -50 30 -287 29 -287 -1 0 -5 -11
-9 -25 -9 -14 0 -25 1 -25 3 0 21 55 273 66 307 44 124 82 198 128 242 56 55
142 87 233 86 46 -1 58 -6 90 -35z m1443 -120 c0 -135 -1 -138 -19 -114 -10
13 -23 39 -30 58 -11 30 -11 36 6 50 16 13 16 14 1 9 -19 -6 -25 9 -8 19 6 4
1 14 -12 25 l-23 19 35 35 c19 19 38 35 43 35 4 1 7 -61 7 -136z m-2120 107
c0 -5 -5 -10 -11 -10 -5 0 -7 5 -4 10 3 6 8 10 11 10 2 0 4 -4 4 -10z m-980
-50 c13 -9 13 -10 0 -10 -8 0 -22 5 -30 10 -13 9 -13 10 0 10 8 0 22 -5 30
-10z m57 -16 c-3 -3 -12 -4 -19 -1 -8 3 -5 6 6 6 11 1 17 -2 13 -5z m50 -10
c-3 -3 -12 -4 -19 -1 -8 3 -5 6 6 6 11 1 17 -2 13 -5z m558 -6 c3 -3 8 -86 11
-184 3 -98 9 -185 14 -193 10 -17 13 4 11 89 -1 25 2 59 7 75 l9 30 7 -38 c4
-20 4 -41 1 -46 -11 -18 -16 -121 -5 -121 5 0 10 18 10 41 0 22 4 38 9 34 5
-3 8 -25 7 -50 -3 -42 7 -61 16 -33 3 7 7 2 10 -10 5 -19 2 -22 -23 -22 -17 0
-29 -5 -29 -13 0 -20 -32 -17 -57 5 -12 11 -26 17 -32 14 -7 -5 -10 55 -11
183 0 104 -2 196 -6 204 -3 8 0 18 5 22 6 3 9 11 6 16 -6 9 30 7 40 -3z m-581
-70 c3 -29 10 -105 15 -168 l10 -115 -5 157 c-3 109 -1 159 7 164 17 10 29
-16 30 -71 2 -48 2 -48 9 -15 6 28 8 21 9 -37 0 -39 -2 -73 -6 -76 -5 -2 -2
-2 5 -1 9 3 12 -26 12 -116 0 -74 -4 -120 -10 -120 -6 0 -9 -19 -8 -44 2 -24
6 -42 9 -40 14 8 19 -31 18 -134 -1 -69 -4 -98 -9 -82 -8 24 -8 24 -9 2 -1
-12 6 -25 14 -28 11 -5 15 -22 15 -65 0 -33 -4 -59 -10 -59 -5 0 -10 5 -10 11
0 6 -10 19 -22 29 -21 17 -21 18 -5 43 20 30 22 41 6 31 -7 -4 -9 0 -5 14 6
17 3 19 -14 15 -11 -3 -18 -8 -15 -11 6 -6 -14 -32 -25 -32 -14 0 -18 51 -7
81 6 16 17 29 24 29 10 0 13 25 13 101 0 68 -3 98 -11 94 -6 -4 -7 -19 -4 -36
4 -16 3 -55 -1 -86 -4 -32 -10 -50 -12 -40 -2 11 -9 16 -18 13 -11 -4 -14 8
-14 59 0 35 4 66 9 69 17 11 19 46 3 62 -11 12 -16 40 -18 103 -2 47 -6 110
-9 139 -4 35 -3 58 5 67 8 9 10 28 6 51 -8 39 1 94 14 94 5 0 11 -24 14 -52z
m142 0 c1 -77 7 -128 16 -128 4 0 8 9 8 20 0 11 5 20 10 20 6 0 10 -15 10 -32
0 -18 4 -39 8 -45 4 -7 7 12 7 42 -1 30 2 60 7 67 4 7 8 9 8 3 1 -5 3 -59 6
-120 2 -60 6 -148 9 -195 2 -47 5 -116 5 -154 0 -38 3 -67 6 -63 4 3 6 36 6
72 0 46 4 68 13 71 8 3 13 19 13 34 -1 16 -4 27 -8 25 -4 -3 -10 12 -14 33 -7
42 -6 186 1 159 6 -22 23 -12 23 14 0 10 5 19 10 19 6 0 11 -37 12 -87 2 -110
2 -109 -7 -162 -6 -32 -5 -42 3 -37 9 5 12 -7 12 -38 0 -34 4 -46 15 -46 8 0
15 -4 15 -10 0 -5 -7 -10 -15 -10 -8 0 -15 -9 -15 -19 0 -23 36 -52 56 -44 8
3 12 -3 11 -16 -2 -25 -4 -26 -23 -6 -20 19 -26 19 -52 -4 -26 -22 -28 -31 -7
-31 8 0 15 -7 15 -15 0 -8 -6 -15 -14 -15 -18 0 -13 -39 6 -52 10 -6 8 -11 -7
-20 -30 -18 -32 -14 -36 60 -1 12 -4 22 -8 22 -11 0 -29 -50 -20 -56 5 -3 9
-10 9 -15 0 -6 -4 -7 -10 -4 -14 9 -13 -8 2 -23 9 -9 8 -16 -4 -29 -8 -10 -13
-23 -11 -30 2 -6 -1 -14 -6 -18 -7 -3 -11 3 -11 16 0 22 0 22 -14 4 -8 -11
-13 -22 -11 -25 2 -3 -7 -5 -20 -5 -22 0 -23 4 -29 95 -18 299 -18 333 -5 325
9 -6 11 3 5 41 -4 27 -9 78 -11 114 l-4 65 8 -53 c5 -29 12 -56 16 -60 5 -4 5
4 2 18 -4 14 -7 64 -7 113 0 82 -14 119 -23 60 -2 -16 -4 -3 -4 27 0 30 2 45
4 33 2 -13 8 -23 13 -23 14 0 16 32 7 82 -7 35 -6 52 3 63 7 8 13 15 14 15 1
0 2 -19 2 -42z m66 -6 l-6 -27 -6 25 c-8 30 -1 58 10 40 4 -6 5 -23 2 -38z
m550 -72 c4 -67 2 -91 -3 -65 -4 22 -8 65 -9 95 -1 43 -4 51 -11 35 -8 -17 -9
-17 -4 5 2 14 5 32 5 40 0 8 3 10 9 5 5 -6 11 -57 13 -115z m-405 63 c-3 -10
-5 -2 -5 17 0 19 2 27 5 18 2 -10 2 -26 0 -35z m-437 -3 c-5 -16 -11 -34 -14
-39 -3 -5 -3 -11 1 -13 5 -1 6 -21 3 -43 -5 -38 -6 -36 -13 25 -9 70 -3 100
18 100 10 0 11 -7 5 -30z m375 -89 c-9 -24 -16 -6 -20 55 l-4 59 14 -50 c8
-27 12 -56 10 -64z m517 67 c-9 -9 -12 -7 -12 12 0 19 3 21 12 12 9 -9 9 -15
0 -24z m-702 -18 c0 -5 -2 -10 -4 -10 -3 0 -8 5 -11 10 -3 6 -1 10 4 10 6 0
11 -4 11 -10z m341 -227 c1 -57 -1 -106 -4 -110 -4 -3 -7 17 -7 46 0 37 -4 53
-15 57 -8 4 -15 18 -15 33 0 20 2 23 10 11 15 -24 18 -8 10 50 -6 51 -6 87 0
135 4 32 18 -111 21 -222z m-502 95 c0 -51 -3 -86 -6 -78 -3 8 -12 19 -19 23
-15 9 -19 53 -5 59 4 2 12 14 16 27 5 16 4 21 -4 17 -15 -10 -14 11 2 29 6 8
13 14 15 15 1 0 2 -42 1 -92z m468 -20 c-3 -8 -6 -5 -6 6 -1 11 2 17 5 13 3
-3 4 -12 1 -19z m93 -12 c0 -10 -7 -12 -22 -8 -21 5 -21 6 -2 13 10 4 20 8 22
8 1 1 2 -5 2 -13z m2460 -6 c6 -11 8 -20 6 -20 -3 0 -10 9 -16 20 -6 11 -8 20
-6 20 3 0 10 -9 16 -20z m-2073 -72 c-3 -8 -6 -5 -6 6 -1 11 2 17 5 13 3 -3 4
-12 1 -19z m-362 -62 c6 -14 4 -17 -11 -14 -22 4 -34 46 -21 73 10 19 11 18
18 -10 3 -16 10 -38 14 -49z m248 -13 c5 -71 4 -83 -9 -83 -28 0 -45 29 -51
85 -4 40 -2 55 6 55 7 0 19 7 28 15 8 9 16 15 18 13 1 -2 5 -40 8 -85z m-825
11 c-1 -22 0 -101 1 -176 3 -112 0 -140 -12 -152 -25 -25 -35 1 -34 92 1 64 4
82 14 78 7 -3 13 -1 13 4 0 6 -6 10 -13 10 -8 0 -12 11 -11 28 1 15 2 56 3 92
1 46 4 61 11 50 7 -12 10 -8 10 15 1 24 3 27 10 14 5 -9 9 -34 8 -55z m382 16
c0 -5 -4 -10 -10 -10 -5 0 -10 5 -10 10 0 6 5 10 10 10 6 0 10 -4 10 -10z m37
-20 c2 -11 -2 -20 -7 -20 -6 0 -10 12 -10 27 0 29 12 24 17 -7z m43 2 c0 -5
-7 -9 -15 -9 -8 0 -15 4 -15 9 0 4 7 8 15 8 8 0 15 -4 15 -8z m163 -32 c6 -24
-8 -36 -17 -14 -8 22 -7 34 3 34 5 0 11 -9 14 -20z m277 -13 c0 -5 -4 -5 -10
-2 -5 3 -10 14 -10 23 0 15 2 15 10 2 5 -8 10 -19 10 -23z m-33 -19 c-3 -7 -5
-2 -5 12 0 14 2 19 5 13 2 -7 2 -19 0 -25z m-160 0 c-3 -8 -6 -5 -6 6 -1 11 2
17 5 13 3 -3 4 -12 1 -19z m256 -2 c25 9 21 -1 -8 -20 -25 -16 -25 -16 -25 11
0 18 3 24 8 15 5 -7 16 -10 25 -6z m-546 -26 c-2 -29 -17 -24 -17 6 0 14 4 23
9 19 6 -3 9 -14 8 -25z m700 -16 c-3 -4 -2 -14 2 -23 8 -15 -10 -46 -21 -35
-9 8 4 64 15 64 6 0 7 -3 4 -6z m133 -9 c7 -8 19 -15 26 -15 8 0 14 -5 14 -11
0 -6 -7 -8 -16 -5 -9 3 -21 3 -27 -1 -18 -12 -96 -31 -102 -25 -13 13 -4 42
14 42 10 0 21 7 25 15 3 8 16 15 29 15 14 0 30 -7 37 -15z m-420 -30 c0 -19
-4 -35 -9 -35 -11 0 -21 38 -14 56 10 26 23 14 23 -21z m-380 -36 c0 -4 -5
-11 -10 -14 -6 -4 -10 -3 -9 2 3 19 -2 27 -10 14 -14 -22 -28 -4 -23 30 l5 31
23 -28 c13 -15 24 -31 24 -35z m1724 45 c9 -3 16 -13 16 -21 0 -13 -12 -15
-73 -11 -86 6 -119 19 -72 29 40 9 110 10 129 3z m226 -19 c7 -9 8 -15 2 -15
-5 0 -12 7 -16 15 -3 8 -4 15 -2 15 2 0 9 -7 16 -15z m-1255 -35 c3 -5 2 -10
-4 -10 -5 0 -13 5 -16 10 -3 6 -2 10 4 10 5 0 13 -4 16 -10z m-725 -26 c0 -8
-4 -12 -10 -9 -5 3 -10 10 -10 16 0 5 5 9 10 9 6 0 10 -7 10 -16z m380 -14
c-8 -5 -17 -7 -19 -4 -3 3 1 9 9 14 8 5 17 7 19 4 3 -3 -1 -9 -9 -14z m-860
-15 c0 -14 -4 -25 -9 -25 -4 0 -6 11 -3 25 2 14 6 25 8 25 2 0 4 -11 4 -25z
m1370 -25 c8 -5 11 -10 5 -10 -5 0 -17 5 -25 10 -8 5 -10 10 -5 10 6 0 17 -5
25 -10z m244 -5 c-4 -8 -8 -15 -10 -15 -2 0 -4 7 -4 15 0 8 4 15 10 15 5 0 7
-7 4 -15z m456 -1 c0 -8 -4 -12 -10 -9 -5 3 -10 10 -10 16 0 5 5 9 10 9 6 0
10 -7 10 -16z m-620 -3 c0 -11 -39 -25 -47 -18 -3 3 -2 10 2 16 8 13 45 15 45
2z m395 -12 c-5 -15 -4 -19 4 -15 6 4 14 0 17 -8 9 -25 27 -19 46 15 16 27 19
29 33 15 9 -8 31 -18 50 -22 19 -3 35 -10 35 -14 0 -4 8 -7 18 -6 9 0 16 -5
15 -11 -2 -7 2 -13 7 -13 6 0 10 4 10 10 0 5 10 15 22 21 18 10 24 8 35 -7 7
-10 13 -12 13 -6 0 16 145 8 166 -8 11 -10 14 -10 14 -1 0 7 5 9 11 5 18 -11
-9 -22 -74 -29 -40 -5 -55 -10 -46 -16 31 -19 189 1 189 24 0 7 4 6 10 -3 9
-13 10 -13 11 0 0 10 3 8 9 -5 8 -18 9 -18 9 -2 1 10 5 16 10 12 5 -3 12 9 14
27 4 32 4 32 5 -5 3 -54 -26 -172 -46 -190 -9 -8 -37 -21 -62 -27 -25 -7 -40
-15 -34 -17 23 -8 109 33 121 58 13 26 44 135 46 156 0 7 3 12 6 11 3 0 8 1
11 2 16 6 50 5 50 -2 0 -4 7 -8 15 -8 9 0 12 6 9 15 -4 11 5 20 32 30 22 9 47
20 58 26 34 19 49 -10 52 -102 1 -44 5 -103 9 -129 4 -29 2 -56 -5 -69 -7 -14
-7 -21 0 -21 5 0 10 -5 10 -11 0 -5 -4 -7 -10 -4 -6 4 -10 -7 -10 -27 -1 -38
-23 -73 -40 -63 -7 4 -4 13 10 25 19 16 19 19 5 27 -14 8 -14 12 -1 37 9 18
12 42 9 63 -4 22 -2 38 6 43 10 5 9 9 -3 13 -12 5 -16 0 -16 -21 0 -16 -4 -32
-8 -38 -5 -5 -15 -29 -23 -54 l-14 -45 -6 30 c-6 28 -7 29 -14 8 -4 -13 -15
-23 -24 -23 -29 0 -42 -34 -31 -87 19 -89 19 -101 5 -113 -19 -15 -10 -30 17
-30 15 0 19 5 15 20 -3 11 -1 20 4 20 13 0 11 -37 -2 -46 -6 -3 -9 -14 -6 -24
3 -11 -2 -21 -10 -24 -9 -4 -13 -13 -9 -22 4 -9 1 -23 -5 -30 -9 -11 -7 -14
12 -14 22 -1 23 -2 7 -14 -10 -7 -18 -23 -18 -35 0 -11 -6 -21 -12 -22 -7 -1
-2 -5 12 -9 24 -8 23 -8 -7 -9 -18 -1 -33 -5 -33 -11 0 -5 -9 -10 -20 -10 -13
0 -20 -7 -20 -20 0 -11 7 -20 15 -20 8 0 15 -5 15 -10 0 -7 -8 -7 -22 1 -20
11 -26 8 -60 -31 -21 -24 -36 -45 -33 -48 3 -3 1 -10 -4 -16 -23 -28 -60 -109
-54 -119 4 -6 -2 -8 -15 -5 -22 6 -27 -4 -23 -39 2 -18 -46 -28 -64 -13 -8 7
-16 9 -16 4 -1 -5 -4 5 -8 21 -4 19 -12 29 -22 28 -11 -2 -15 5 -13 27 1 17
-1 32 -6 35 -4 2 -7 27 -6 55 2 42 -2 53 -21 65 -20 13 -22 13 -17 0 4 -10 0
-15 -15 -15 -16 0 -21 -6 -21 -24 0 -32 -18 -43 -22 -14 l-3 23 -13 -23 c-10
-17 -11 -27 -2 -37 15 -18 -6 -31 -24 -16 -10 8 -16 8 -25 -2 -6 -8 -8 -16 -5
-20 3 -3 3 -15 -1 -27 l-7 -22 -22 21 c-24 23 -38 19 -29 -7 5 -11 1 -14 -13
-10 -19 5 -45 -13 -44 -29 1 -5 -6 -9 -15 -11 -9 -2 -14 2 -13 10 2 7 -5 12
-14 12 -10 -1 -18 2 -18 8 0 5 -5 6 -10 3 -6 -4 -17 -1 -25 5 -8 7 -16 9 -17
4 0 -5 -2 -13 -3 -19 -2 -5 -3 -16 -4 -22 0 -7 -5 -13 -11 -13 -6 0 -8 18 -4
43 4 38 3 40 -9 23 -20 -27 -32 -3 -13 26 7 13 13 38 11 56 -2 30 0 33 22 29
23 -4 31 7 13 18 -6 4 -8 11 -4 16 3 5 9 7 14 4 20 -12 36 7 36 43 -1 41 -10
52 -43 52 -17 0 -23 6 -23 21 0 18 -2 20 -16 8 -19 -16 -144 -18 -161 -3 -15
15 -65 5 -80 -15 -6 -9 -9 -26 -6 -38 3 -15 1 -23 -8 -24 -8 0 -4 -4 9 -9 12
-5 22 -18 22 -28 0 -10 3 -22 7 -26 4 -4 6 -23 4 -42 -1 -18 2 -34 6 -34 14 0
61 -77 54 -86 -10 -14 -64 -15 -73 -1 -6 9 -8 9 -8 -1 0 -7 7 -15 15 -18 15
-6 21 -34 8 -34 -14 0 -28 14 -52 48 -16 24 -29 32 -42 29 -11 -3 -19 -1 -19
4 0 17 -30 9 -31 -8 0 -17 -1 -17 -8 0 -4 10 -11 18 -16 18 -6 0 -11 7 -11 17
-4 42 -6 46 -15 22 -7 -20 -7 -17 -3 13 3 20 1 37 -3 37 -4 0 -9 17 -9 38 -1
20 -4 61 -5 90 -3 41 0 57 14 69 9 9 17 27 17 40 0 20 5 23 43 24 23 1 47 0
52 -1 6 -2 59 -3 120 -2 60 0 115 -4 121 -9 6 -5 54 -10 105 -10 52 0 136 -5
188 -11 87 -10 95 -13 110 -39 9 -16 21 -29 27 -29 13 0 38 -50 35 -69 -2 -10
2 -10 14 3 10 9 22 15 29 13 14 -5 35 22 36 45 0 11 -5 15 -15 12 -13 -6 -20
6 -16 29 0 4 -4 6 -10 5 -6 -2 -19 22 -28 52 -12 40 -22 55 -34 54 -10 -1 -17
5 -17 17 0 11 -4 19 -9 19 -5 0 -17 8 -27 17 -13 13 -19 14 -22 5 -7 -22 -25
-13 -71 36 -24 26 -41 39 -38 30 14 -38 -36 -8 -53 31 -11 28 -10 33 18 60 29
30 31 30 62 15 17 -9 34 -13 37 -10 12 12 -50 66 -75 66 -17 0 -22 4 -19 14 3
8 2 28 -2 44 l-9 29 42 -9 c63 -15 337 -11 353 5 2 3 -58 4 -134 3 -147 -1
-227 12 -275 46 -30 21 -81 122 -92 183 -9 47 3 41 13 -6 8 -40 26 -48 42 -17
9 19 9 21 -2 11 -10 -10 -15 -6 -25 23 -7 20 -10 43 -7 50 8 22 15 16 8 -7z
m-1792 -123 c-29 -40 -35 -30 -11 17 15 29 23 37 26 25 2 -10 -5 -29 -15 -42z
m87 -33 c-1 -18 -18 -35 -24 -24 -4 6 -4 16 -1 21 7 12 25 13 25 3z m1740
-183 c0 -26 -38 -32 -61 -9 -25 25 -24 34 4 46 26 12 57 -8 57 -37z m-310
-100 c8 -5 11 -10 5 -10 -5 0 -3 -4 5 -10 12 -8 12 -10 -3 -16 -20 -7 -47 11
-47 32 0 16 18 18 40 4z m100 -138 c0 -14 36 -52 50 -52 6 0 10 -6 8 -12 -5
-15 -104 -22 -112 -9 -3 4 4 17 14 29 11 12 20 28 20 37 0 8 5 15 10 15 6 0
10 -4 10 -8z m-1510 -112 c-24 -15 -37 -11 -16 5 11 8 22 12 25 9 3 -3 -1 -9
-9 -14z m2416 -147 c-10 -10 -19 5 -10 18 6 11 8 11 12 0 2 -7 1 -15 -2 -18z
m374 -108 c0 -34 4 -44 19 -48 28 -7 32 2 16 34 -23 44 -19 58 15 57 17 -1 34
-6 38 -12 4 -6 14 -11 22 -11 11 0 15 -11 15 -38 0 -22 5 -37 12 -37 6 0 15
-5 18 -10 5 -7 -8 -9 -37 -6 -131 14 -194 19 -205 17 -17 -3 -16 9 1 50 18 43
19 44 55 45 30 1 31 0 31 -41z m-1335 -5 c3 -5 -1 -10 -9 -10 -9 0 -16 5 -16
10 0 6 4 10 9 10 6 0 13 -4 16 -10z m-308 -42 c-3 -8 -6 -5 -6 6 -1 11 2 17 5
13 3 -3 4 -12 1 -19z m2063 -33 c74 -9 211 -19 303 -24 176 -10 234 -21 106
-21 -90 0 -649 46 -657 54 -10 10 110 6 248 -9z m-492 -57 c7 -7 12 -8 12 -1
0 13 98 11 125 -4 11 -5 32 -10 47 -9 14 1 25 -1 22 -5 -6 -10 54 -29 92 -29
19 0 34 -4 34 -8 0 -4 -31 -7 -70 -5 -41 1 -70 -1 -70 -7 0 -6 18 -10 40 -10
22 0 40 -4 40 -9 0 -6 12 -6 30 -1 16 5 32 5 35 0 8 -13 -15 -23 -54 -25 -20
-1 -44 -5 -54 -10 -10 -4 -35 -3 -56 4 -51 15 -84 14 -76 -1 4 -7 0 -5 -8 5
-8 9 -22 17 -31 17 -9 0 -16 5 -16 10 0 6 5 10 12 10 9 0 9 3 0 12 -7 7 -12
20 -12 30 0 17 -10 22 -36 19 -6 -1 -17 6 -24 14 -15 18 1 20 18 3z m590 -15
c17 -4 20 -9 12 -18 -7 -9 -6 -16 6 -26 14 -11 14 -14 1 -24 -8 -6 -17 -22
-19 -35 -2 -21 -11 -26 -52 -34 -42 -7 -51 -6 -62 8 -15 21 -29 111 -19 126 7
11 88 12 133 3z m-643 -21 c-3 -3 -11 0 -18 7 -9 10 -8 11 6 5 10 -3 15 -9 12
-12z m75 2 c0 -3 -6 -12 -14 -19 -11 -12 -16 -12 -32 1 -18 14 -18 15 4 9 13
-4 22 -2 22 4 0 6 5 11 10 11 6 0 10 -3 10 -6z m-1300 -8 c0 -3 -4 -8 -10 -11
-5 -3 -10 -1 -10 4 0 6 5 11 10 11 6 0 10 -2 10 -4z m1950 -36 c0 -5 -4 -10
-9 -10 -6 0 -13 5 -16 10 -3 6 1 10 9 10 9 0 16 -4 16 -10z m-228 -52 c-10
-22 -11 -21 -11 12 -1 26 2 31 11 22 8 -8 8 -17 0 -34z m-2005 -10 c-3 -8 -6
-5 -6 6 -1 11 2 17 5 13 3 -3 4 -12 1 -19z m2533 -8 c0 -5 -4 -10 -10 -10 -5
0 -10 5 -10 10 0 6 5 10 10 10 6 0 10 -4 10 -10z m-2370 -236 c0 -8 -4 -14
-10 -14 -5 0 -10 9 -10 21 0 11 5 17 10 14 6 -3 10 -13 10 -21z m227 -110 c-3
-3 -12 -4 -19 -1 -8 3 -5 6 6 6 11 1 17 -2 13 -5z"/>
<path d="M2560 2179 c0 -5 5 -7 10 -4 6 3 10 8 10 11 0 2 -4 4 -10 4 -5 0 -10
-5 -10 -11z"/>
<path d="M720 2528 c0 -18 18 -34 28 -24 3 4 -2 14 -11 23 -16 16 -17 16 -17
1z"/>
<path d="M770 2296 c0 -9 5 -16 10 -16 6 0 10 4 10 9 0 6 -4 13 -10 16 -5 3
-10 -1 -10 -9z"/>
<path d="M222 2377 c-1 -29 3 -54 11 -62 12 -11 14 -6 15 28 0 31 -2 37 -8 22
-6 -16 -9 -12 -12 20 -5 40 -5 40 -6 -8z"/>
<path d="M200 1976 c0 -9 5 -16 10 -16 6 0 10 4 10 9 0 6 -4 13 -10 16 -5 3
-10 -1 -10 -9z"/>
<path d="M331 2313 c4 -98 7 -198 8 -222 0 -24 3 -42 6 -39 14 14 0 438 -14
438 -3 0 -3 -80 0 -177z"/>
<path d="M362 2345 c0 -16 2 -22 5 -12 2 9 2 23 0 30 -3 6 -5 -1 -5 -18z"/>
<path d="M438 2345 c-3 -14 -1 -28 3 -31 5 -3 9 9 9 25 0 38 -6 40 -12 6z"/>
<path d="M344 2011 c3 -18 6 -67 6 -107 0 -41 3 -74 8 -74 11 0 2 194 -10 205
-7 7 -9 0 -4 -24z"/>
<path d="M410 1989 c0 -11 4 -18 10 -14 5 3 7 12 3 20 -7 21 -13 19 -13 -6z"/>
<path d="M916 2255 c-3 -9 0 -15 9 -15 9 0 12 6 9 15 -4 8 -7 15 -9 15 -2 0
-5 -7 -9 -15z"/>
<path d="M103 2235 c0 -27 2 -38 4 -22 2 15 2 37 0 50 -2 12 -4 0 -4 -28z"/>
<path d="M2022 1928 c7 -21 110 -66 163 -72 96 -10 175 -12 175 -4 0 4 -14 8
-32 8 -17 0 -60 5 -95 11 -47 8 -63 15 -63 28 0 14 -2 14 -10 1 -8 -13 -13
-13 -41 3 -17 9 -37 17 -45 17 -8 0 -14 5 -14 10 0 6 -9 10 -21 10 -12 0 -19
-5 -17 -12z"/>
<path d="M2780 1861 c0 -6 5 -13 10 -16 6 -3 10 1 10 9 0 9 -4 16 -10 16 -5 0
-10 -4 -10 -9z"/>
<path d="M2610 1850 c0 -5 5 -10 11 -10 5 0 7 5 4 10 -3 6 -8 10 -11 10 -2 0
-4 -4 -4 -10z"/>
<path d="M2636 1824 c-8 -22 -8 -26 3 -19 5 3 12 -4 16 -15 3 -11 10 -20 15
-20 14 0 20 31 10 51 -13 23 -36 25 -44 3z"/>
<path d="M2710 1796 c0 -8 5 -18 10 -21 6 -3 10 3 10 14 0 12 -4 21 -10 21 -5
0 -10 -6 -10 -14z"/>
<path d="M2721 1724 c0 -11 3 -14 6 -6 3 7 2 16 -1 19 -3 4 -6 -2 -5 -13z"/>
<path d="M2490 1291 c0 -7 -4 -10 -9 -7 -13 8 -24 -25 -12 -37 7 -7 14 -1 21
18 6 15 8 30 5 33 -3 3 -5 0 -5 -7z"/>
<path d="M2620 1280 c0 -5 5 -10 10 -10 6 0 10 5 10 10 0 6 -4 10 -10 10 -5 0
-10 -4 -10 -10z"/>
<path d="M2416 1234 c-7 -17 41 -70 53 -59 3 4 -2 12 -11 19 -12 9 -14 16 -7
23 6 6 8 16 5 22 -10 16 -33 13 -40 -5z"/>
<path d="M2555 1169 c-4 -6 -5 -12 -2 -15 2 -3 7 2 10 11 7 17 1 20 -8 4z"/>
<path d="M2494 1161 c4 -6 0 -18 -9 -27 -22 -22 -14 -26 18 -11 30 13 32 40 3
45 -11 3 -16 0 -12 -7z"/>
<path d="M3490 860 c0 -5 5 -10 11 -10 5 0 7 5 4 10 -3 6 -8 10 -11 10 -2 0
-4 -4 -4 -10z"/>
<path d="M3770 3680 c-13 -8 -12 -10 3 -10 9 0 17 5 17 10 0 12 -1 12 -20 0z"/>
<path d="M1442 3625 c0 -16 2 -22 5 -12 2 9 2 23 0 30 -3 6 -5 -1 -5 -18z"/>
<path d="M3790 3630 c19 -13 30 -13 30 0 0 6 -10 10 -22 10 -19 0 -20 -2 -8
-10z"/>
<path d="M3800 3610 c-26 -5 -31 -8 -18 -14 9 -4 25 -3 36 3 11 6 23 7 27 3 5
-4 5 -1 1 6 -4 6 -8 11 -9 11 -1 -1 -18 -5 -37 -9z"/>
<path d="M1455 3580 c3 -5 8 -10 11 -10 2 0 4 5 4 10 0 6 -5 10 -11 10 -5 0
-7 -4 -4 -10z"/>
<path d="M3801 3576 c-11 -13 -9 -15 18 -13 17 1 29 7 28 12 -6 16 -33 17 -46
1z"/>
<path d="M3745 3560 c-3 -5 1 -10 10 -10 9 0 13 5 10 10 -3 6 -8 10 -10 10 -2
0 -7 -4 -10 -10z"/>
<path d="M3676 3445 c-3 -8 -1 -15 4 -15 6 0 10 7 10 15 0 8 -2 15 -4 15 -2 0
-6 -7 -10 -15z"/>
<path d="M1210 3386 c0 -2 7 -7 16 -10 8 -3 12 -2 9 4 -6 10 -25 14 -25 6z"/>
<path d="M1022 3220 c0 -14 2 -19 5 -12 2 6 2 18 0 25 -3 6 -5 1 -5 -13z"/>
<path d="M1031 3174 c0 -11 3 -14 6 -6 3 7 2 16 -1 19 -3 4 -6 -2 -5 -13z"/>
<path d="M116 3041 c-18 -7 -18 -8 -3 -14 12 -4 17 -18 17 -46 0 -21 7 -52 15
-67 15 -28 15 -26 13 50 -3 81 -8 90 -42 77z"/>
<path d="M190 3030 c0 -6 7 -10 15 -10 8 0 15 2 15 4 0 2 -7 6 -15 10 -8 3
-15 1 -15 -4z"/>
<path d="M955 2880 c-3 -5 3 -10 15 -10 12 0 18 5 15 10 -3 6 -10 10 -15 10
-5 0 -12 -4 -15 -10z"/>
<path d="M3271 2871 c-7 -5 -12 -14 -9 -21 2 -8 11 -5 28 9 17 14 20 20 10 21
-8 0 -21 -4 -29 -9z"/>
<path d="M3791 2834 c0 -11 3 -14 6 -6 3 7 2 16 -1 19 -3 4 -6 -2 -5 -13z"/>
<path d="M3793 2760 c0 -25 2 -35 4 -22 2 12 2 32 0 45 -2 12 -4 2 -4 -23z"/>
<path d="M3814 2560 c0 -91 2 -128 3 -82 2 45 2 119 0 165 -1 45 -3 8 -3 -83z"/>
<path d="M3401 2624 c0 -11 3 -14 6 -6 3 7 2 16 -1 19 -3 4 -6 -2 -5 -13z"/>
<path d="M3394 2440 c0 -69 1 -97 3 -62 2 34 2 90 0 125 -2 34 -3 6 -3 -63z"/>
<path d="M1 2378 c0 -33 2 -38 9 -23 12 28 12 65 0 65 -5 0 -10 -19 -9 -42z"/>
<path d="M3602 2370 c0 -14 2 -19 5 -12 2 6 2 18 0 25 -3 6 -5 1 -5 -13z"/>
<path d="M3594 2160 c0 -91 2 -128 3 -82 2 45 2 119 0 165 -1 45 -3 8 -3 -83z"/>
<path d="M3181 2294 c0 -11 3 -14 6 -6 3 7 2 16 -1 19 -3 4 -6 -2 -5 -13z"/>
<path d="M3182 2199 c-2 -54 -3 -56 -27 -51 -20 3 -25 0 -25 -15 0 -11 11 -25
25 -31 24 -11 25 -16 27 -104 l2 -93 5 105 c3 57 3 136 0 175 l-6 70 -1 -56z"/>
<path d="M3804 2120 c0 -69 1 -97 3 -62 2 34 2 90 0 125 -2 34 -3 6 -3 -63z"/>
<path d="M3222 2088 c2 -60 6 -73 21 -76 15 -3 17 6 17 72 0 70 -2 76 -20 76
-19 0 -21 -5 -18 -72z"/>
<path d="M3382 1848 c-1 -130 -5 -245 -8 -255 -5 -16 -5 -16 5 -1 8 11 10 95
8 255 l-2 238 -3 -237z"/>
<path d="M1528 1933 c7 -3 16 -2 19 1 4 3 -2 6 -13 5 -11 0 -14 -3 -6 -6z"/>
<path d="M1410 1905 l-35 -13 63 -1 c47 -1 63 2 60 12 -6 17 -47 18 -88 2z"/>
<path d="M1530 1909 c0 -5 5 -7 10 -4 6 3 10 8 10 11 0 2 -4 4 -10 4 -5 0 -10
-5 -10 -11z"/>
<path d="M3794 1720 c0 -113 2 -159 3 -102 2 56 2 148 0 205 -1 56 -3 10 -3
-103z"/>
<path d="M3181 1864 c0 -11 3 -14 6 -6 3 7 2 16 -1 19 -3 4 -6 -2 -5 -13z"/>
<path d="M3181 1824 c0 -11 3 -14 6 -6 3 7 2 16 -1 19 -3 4 -6 -2 -5 -13z"/>
<path d="M3072 1730 c0 -19 2 -27 5 -17 2 9 2 25 0 35 -3 9 -5 1 -5 -18z"/>
<path d="M3577 1426 c-5 -186 -6 -340 -4 -343 6 -6 20 546 15 622 -1 33 -7
-92 -11 -279z"/>
<path d="M3174 1340 c0 -135 2 -190 3 -122 2 67 2 177 0 245 -1 67 -3 12 -3
-123z"/>
<path d="M3374 1315 c0 -126 2 -177 3 -112 2 65 2 168 0 230 -1 62 -3 9 -3
-118z"/>
<path d="M3785 1498 c-7 -21 -11 -428 -4 -428 3 0 7 93 8 206 1 113 5 212 8
220 3 8 2 14 -1 14 -4 0 -9 -6 -11 -12z"/>
<path d="M3990 1313 c-1 -76 -3 -166 -6 -200 -4 -42 -2 -63 5 -63 8 0 11 64
11 200 0 110 -2 200 -5 200 -3 0 -5 -62 -5 -137z"/>
<path d="M2862 1340 c0 -14 2 -19 5 -12 2 6 2 18 0 25 -3 6 -5 1 -5 -13z"/>
<path d="M3033 1315 c0 -27 2 -38 4 -22 2 15 2 37 0 50 -2 12 -4 0 -4 -28z"/>
<path d="M3033 1185 c0 -38 2 -53 4 -32 2 20 2 52 0 70 -2 17 -4 1 -4 -38z"/>
<path d="M1322 970 c0 -14 2 -19 5 -12 2 6 2 18 0 25 -3 6 -5 1 -5 -13z"/>
<path d="M1540 461 c0 -6 5 -13 10 -16 6 -3 10 1 10 9 0 9 -4 16 -10 16 -5 0
-10 -4 -10 -9z"/>
<path d="M2413 377 c-24 -30 -35 -75 -21 -83 14 -9 47 35 48 63 0 27 -14 37
-27 20z"/>
<path d="M2360 229 c0 -5 5 -7 10 -4 6 3 10 8 10 11 0 2 -4 4 -10 4 -5 0 -10
-5 -10 -11z"/>
<path d="M2385 201 c-3 -5 -1 -12 5 -16 5 -3 10 1 10 9 0 18 -6 21 -15 7z"/>
<path d="M2302 159 c-18 -6 -35 -16 -39 -24 -3 -8 -11 -15 -18 -15 -6 0 -20
-10 -31 -21 -19 -22 -19 -22 6 -14 47 13 80 30 80 40 0 6 17 18 38 27 41 19
19 23 -36 7z"/>
<path d="M2340 129 c0 -5 5 -7 10 -4 6 3 10 8 10 11 0 2 -4 4 -10 4 -5 0 -10
-5 -10 -11z"/>
</g>
</svg>
